<svg width="25" height="20" viewBox="0 0 25 20" fill="none" xmlns="http://www.w3.org/2000/svg">
<path d="M10.5263 0C3.94731 0 0 5.3333 0 8.00021C0 10.6671 1.3156 12.6672 3.94731 12.6672C6.57903 12.6672 7.89515 13.3335 7.89515 15.3336C7.89515 17.9999 9.86854 20 12.5003 20C21.0532 20 25 15.3336 25 10.6671C24.9995 2.66691 18.4194 0 10.5263 0ZM8.88159 2.66691C9.09785 2.66719 9.31195 2.71051 9.51165 2.7944C9.71134 2.87829 9.89274 3.00111 10.0455 3.15585C10.1982 3.31059 10.3193 3.49421 10.4018 3.69623C10.4843 3.89825 10.5266 4.11472 10.5263 4.33327C10.5263 5.25435 9.7899 6.00016 8.88159 6.00016C7.97327 6.00016 7.23683 5.25382 7.23683 4.33327C7.23655 4.11472 7.27888 3.89825 7.36139 3.69623C7.4439 3.49421 7.56497 3.31059 7.7177 3.15585C7.87043 3.00111 8.05183 2.87829 8.25153 2.7944C8.45123 2.71051 8.66532 2.66719 8.88159 2.66691ZM14.144 2.66691C14.3602 2.66719 14.5743 2.71051 14.774 2.7944C14.9737 2.87829 15.1551 3.00111 15.3079 3.15585C15.4606 3.31059 15.5817 3.49421 15.6642 3.69623C15.7467 3.89825 15.789 4.11472 15.7887 4.33327C15.7891 4.55187 15.7468 4.76839 15.6643 4.97048C15.5818 5.17256 15.4608 5.35624 15.308 5.51103C15.1553 5.66583 14.9739 5.78869 14.7742 5.87262C14.5744 5.95654 14.3603 5.99988 14.144 6.00016C13.9277 5.99981 13.7136 5.95642 13.514 5.87247C13.3143 5.78851 13.1329 5.66563 12.9802 5.51085C12.8276 5.35606 12.7065 5.1724 12.6241 4.97036C12.5417 4.76831 12.4994 4.55183 12.4997 4.33327C12.4992 3.89198 12.6721 3.46852 12.9804 3.15604C13.2888 2.84355 13.7073 2.66761 14.144 2.66691ZM19.4074 5.3333C19.6238 5.33351 19.838 5.37679 20.0377 5.46069C20.2375 5.54458 20.419 5.66744 20.5718 5.82224C20.7246 5.97703 20.8457 6.16074 20.9282 6.36286C21.0107 6.56498 21.053 6.78154 21.0527 7.00018C21.053 7.2188 21.0107 7.43534 20.9282 7.63743C20.8457 7.83952 20.7246 8.02319 20.5718 8.17795C20.419 8.3327 20.2375 8.45551 20.0377 8.53935C19.8379 8.62318 19.6237 8.66641 19.4074 8.66654C19.1911 8.66634 18.977 8.62306 18.7773 8.53919C18.5776 8.45531 18.3963 8.33249 18.2436 8.17773C18.0909 8.02297 17.9698 7.83932 17.8874 7.63727C17.805 7.43522 17.7628 7.21873 17.7632 7.00018C17.7628 6.78161 17.805 6.5651 17.8874 6.36302C17.9698 6.16094 18.0908 5.97725 18.2435 5.82245C18.3962 5.66765 18.5776 5.54478 18.7773 5.46085C18.977 5.37692 19.1911 5.33357 19.4074 5.3333ZM4.27647 6.66702C4.49269 6.66722 4.70675 6.71048 4.90642 6.79433C5.10608 6.87817 5.28745 7.00095 5.44014 7.15565C5.59283 7.31035 5.71387 7.49394 5.79633 7.69593C5.87879 7.89792 5.92105 8.11435 5.92071 8.33285C5.92071 9.25393 5.18427 9.99974 4.27647 9.99974C3.36868 9.99974 2.63172 9.2534 2.63172 8.33285C2.6313 7.89155 2.80434 7.46816 3.11278 7.15577C3.42121 6.84338 3.83979 6.66758 4.27647 6.66702ZM12.4997 13.3335C13.5898 13.3335 14.4731 14.2283 14.4731 15.3341C14.4731 16.4383 13.5898 17.3336 12.4997 17.3336C11.4097 17.3336 10.5263 16.4383 10.5263 15.3341C10.5259 15.0718 10.5765 14.8119 10.6755 14.5694C10.7744 14.3269 10.9196 14.1064 11.1029 13.9206C11.2861 13.7348 11.5038 13.5874 11.7435 13.4866C11.9832 13.3859 12.2402 13.3339 12.4997 13.3335Z" fill="#36454F"/>
</svg>
