<svg width="80" height="80" viewBox="0 0 80 80" fill="none" xmlns="http://www.w3.org/2000/svg">
<g clip-path="url(#clip0_496_1110)">
<path d="M69.9333 8.5333C67.7976 6.42223 64.9898 5.12619 61.9977 4.87042C59.0056 4.61466 56.0185 5.41533 53.5555 7.1333C61.4728 10.4297 67.9405 16.4635 71.7778 24.1333C73.2589 21.7012 73.8821 18.8429 73.5478 16.015C73.2134 13.1871 71.9408 10.5529 69.9333 8.5333Z" fill="black"/>
<path d="M25.3777 7.6223C22.9249 5.67425 19.8439 4.6914 16.7161 4.85926C13.5883 5.02711 10.6302 6.33405 8.39995 8.53341C6.18812 10.7599 4.87815 13.7259 4.72225 16.8604C4.56634 19.9949 5.57553 23.0762 7.55551 25.5112C11.1211 17.5779 17.4578 11.2175 25.3777 7.6223Z" fill="black"/>
<path d="M36.4444 9.08898C30.6425 9.76675 25.1485 12.0643 20.5914 15.7186C16.0342 19.3729 12.5979 24.2365 10.6757 29.7526C8.75355 35.2686 8.42317 41.2145 9.72239 46.9096C11.0216 52.6047 13.8979 57.8189 18.0222 61.9556L12.3555 67.6223C12.1498 67.8324 11.9875 68.081 11.8778 68.3539C11.7681 68.6267 11.7133 68.9185 11.7164 69.2125C11.7195 69.5066 11.7805 69.7972 11.8958 70.0676C12.0112 70.3381 12.1788 70.5832 12.3889 70.789C12.599 70.9947 12.8476 71.157 13.1204 71.2667C13.3933 71.3764 13.6851 71.4312 13.9791 71.4281C14.2732 71.4251 14.5637 71.3641 14.8342 71.2487C15.1047 71.1333 15.3498 70.9658 15.5555 70.7556L21.4667 64.8445C26.8723 68.9351 33.4735 71.1339 40.2523 71.1017C47.0311 71.0696 53.6112 68.8084 58.9778 64.6668L65.0667 70.7556C65.4918 71.1197 66.0386 71.3099 66.5979 71.2883C67.1572 71.2667 67.6877 71.0349 68.0835 70.6391C68.4792 70.2434 68.7111 69.7128 68.7327 69.1535C68.7543 68.5943 68.5641 68.0474 68.2 67.6223L62.2222 61.7334C66.7081 57.1383 69.6621 51.2677 70.6789 44.9271C71.6957 38.5864 70.7256 32.0865 67.9015 26.3191C65.0775 20.5518 60.538 15.7996 54.9058 12.7147C49.2737 9.62977 42.8249 8.36327 36.4444 9.08898ZM43.5111 66.4445C37.988 67.1679 32.377 66.1436 27.4657 63.5153C22.5544 60.887 18.5895 56.7868 16.1275 51.7901C13.6655 46.7934 12.83 41.1512 13.7383 35.6554C14.6466 30.1597 17.2531 25.0863 21.1919 21.1475C25.1307 17.2087 30.204 14.6022 35.6998 13.6939C41.1955 12.7856 46.8377 13.6211 51.8344 16.0831C56.8311 18.5452 60.9314 22.5101 63.5596 27.4213C66.1879 32.3326 67.2123 37.9436 66.4889 43.4668C65.7258 49.2933 63.0594 54.7047 58.9042 58.8599C54.749 63.0151 49.3377 65.6814 43.5111 66.4445Z" fill="black"/>
<path d="M55.3778 45.2002L41.9111 38.5335V21.1113C41.9111 20.5809 41.7004 20.0722 41.3253 19.6971C40.9503 19.322 40.4416 19.1113 39.9111 19.1113C39.3807 19.1113 38.872 19.322 38.4969 19.6971C38.1218 20.0722 37.9111 20.5809 37.9111 21.1113V41.1113L53.6 48.8891C54.0774 49.1219 54.6277 49.1555 55.1299 48.9826C55.6321 48.8096 56.045 48.4443 56.2778 47.9669C56.5106 47.4895 56.5442 46.9392 56.3713 46.437C56.1983 45.9348 55.833 45.5219 55.3556 45.2891L55.3778 45.2002Z" fill="black"/>
</g>
<defs>
<clipPath id="clip0_496_1110">
<rect width="80" height="80" fill="white"/>
</clipPath>
</defs>
</svg>
